<?xml version="1.0" encoding="utf-8"?>
<!-- Generator: Adobe Illustrator 26.2.1, SVG Export Plug-In . SVG Version: 6.00 Build 0)  -->
<svg version="1.1" id="Layer_1" xmlns="http://www.w3.org/2000/svg" xmlns:xlink="http://www.w3.org/1999/xlink" x="0px" y="0px"
	 viewBox="0 0 52.122 52.122" enable-background="new 0 0 52.122 52.122" xml:space="preserve">
<path d="M27.5,27.594c-0.109,0.189-0.109,0.353-0.109,0.596c0,0.952,0,1.791,0,2.769c0,1.845,0,3.689,0,5.534
	c0,0.491,0,0.978,0,1.412c0,0.217,0.135,0.353,0.271,0.435c0.163,0.109,0.326,0.109,0.596,0.109c2.822,0,5.589,0,8.415,0
	c0.461,0,0.922,0,1.357,0c0.217,0,0.379-0.138,0.461-0.27c0.079-0.138,0.079-0.329,0.079-0.546c0-2.82,0-5.589,0-8.329
	c0-0.461,0-0.95,0-1.356c0-0.272-0.135-0.381-0.271-0.461c-0.135-0.109-0.326-0.109-0.543-0.109c-2.849,0-5.642,0-8.412,0
	c-0.464,0-0.978,0-1.439,0c-0.189,0-0.353,0.109-0.434,0.272L27.5,27.594z M17.622,27.512c-1.221,0.381-2.09,0.977-2.794,1.791
	c-0.461,0.543-0.815,1.169-1.085,1.953c-0.272,0.76-0.326,1.765-0.136,2.661c0.326,1.627,1.248,2.794,2.442,3.583
	c0.543,0.379,1.356,0.705,2.172,0.811c0.407,0.084,0.95,0.112,1.438,0.112c0.272,0,0.543,0,0.732,0
	c0.163-0.112,0.326-0.273,0.353-0.435c0.054-0.164,0-0.381,0-0.625c0-3.037,0-5.915,0-8.955c0-0.189,0.054-0.434,0-0.598
	c-0.054-0.271-0.271-0.433-0.65-0.433c-0.326,0-0.815,0-1.139,0c-0.489,0-0.924,0.081-1.357,0.19L17.622,27.512z M31.464,13.835
	c-1.169,0.326-2.091,0.978-2.769,1.791c-0.65,0.814-1.222,1.818-1.276,3.257c0,0.353,0,0.732,0,1.085c0,0.135,0,0.272,0,0.379
	c0.054,0.163,0.163,0.326,0.326,0.408c0.191,0.109,0.461,0.081,0.732,0.081c3.04,0,6.05,0,9.119,0c0.271,0,0.54,0,0.705-0.081
	c0.135-0.082,0.271-0.271,0.271-0.461c0-0.271,0-0.543,0-0.76c0-0.272,0-0.543,0-0.76c0-0.489-0.135-0.924-0.271-1.302
	c-0.271-0.815-0.625-1.439-1.087-1.981c-0.54-0.543-1.084-0.977-1.818-1.356c-0.705-0.272-1.574-0.543-2.602-0.543
	c-0.546,0.054-0.952,0.135-1.357,0.271L31.464,13.835z M32.738,7.159c0.162,0,0.326,0,0.543,0c1.898,0,3.528,0.461,4.884,1.085
	c1.412,0.678,2.552,1.52,3.528,2.525c1.087,1.005,1.9,2.225,2.497,3.61c0.271,0.705,0.543,1.438,0.705,2.279
	c0.191,0.815,0.271,1.737,0.271,2.714c0,8.332,0,16.636,0,24.967c-0.053,0.326-0.271,0.54-0.594,0.625c-8.602,0-17.206,0-25.782,0
	c-1.901-0.084-3.476-0.546-4.832-1.139c-1.356-0.599-2.497-1.442-3.473-2.443c-0.977-0.922-1.818-2.088-2.442-3.445
	c-0.624-1.357-1.085-2.905-1.085-4.805c0-0.135,0-0.273,0-0.435c0-0.273,0-0.543,0-0.814c0.081-0.705,0.19-1.357,0.379-2.009
	c0.652-2.497,1.954-4.423,3.638-5.971c1.085-0.977,2.442-1.818,4.071-2.36c0.76-0.271,1.627-0.543,2.551-0.624
	c0.977-0.136,2.035-0.109,3.121-0.109c0-1.087,0-2.172,0.135-3.094c0.109-0.977,0.326-1.846,0.624-2.633
	c0.543-1.546,1.357-2.849,2.389-3.962c1.031-1.085,2.252-2.062,3.69-2.768c1.466-0.65,3.093-1.194,5.155-1.194L32.738,7.159
	L32.738,7.159z"/>
</svg>
