<?xml version="1.0" encoding="utf-8"?>
<!-- Generator: Adobe Illustrator 26.2.1, SVG Export Plug-In . SVG Version: 6.00 Build 0)  -->
<svg version="1.1" id="Layer_1" xmlns="http://www.w3.org/2000/svg" xmlns:xlink="http://www.w3.org/1999/xlink" x="0px" y="0px"
	 viewBox="0 0 52.122 52.122" enable-background="new 0 0 52.122 52.122" xml:space="preserve">
<g>
	<path fill="none" d="M14.425,20.055c0-0.869-0.409-1.321-1.078-1.321c-0.268,0-0.457,0.035-0.559,0.07v2.619
		c0.126,0.058,0.276,0.07,0.472,0.07C13.984,21.492,14.425,20.959,14.425,20.055z"/>
	<path fill="none" d="M18.825,20.055c0-0.869-0.409-1.321-1.078-1.321c-0.268,0-0.457,0.035-0.559,0.07v2.619
		c0.126,0.058,0.276,0.07,0.472,0.07C18.385,21.492,18.825,20.959,18.825,20.055z"/>
	<path fill="none" d="M8.986,20.287c-0.102-0.475-0.189-1.008-0.268-1.46H8.703c-0.079,0.452-0.165,0.997-0.252,1.46l-0.409,1.924
		h1.362L8.986,20.287z"/>
	<path fill="none" d="M44.069,24.483c0.937,0,1.464-1.287,1.464-2.921c0-1.472-0.496-2.863-1.464-2.863
		c-0.96,0-1.472,1.31-1.472,2.921C42.597,23.219,43.14,24.483,44.069,24.483z"/>
	<path fill="none" d="M33.435,20.287c-0.102-0.475-0.189-1.008-0.268-1.46h-0.016c-0.079,0.452-0.165,0.997-0.252,1.46l-0.409,1.924
		h1.362L33.435,20.287z"/>
	<path fill="none" d="M26.642,27.767h-0.016c-0.079,0.452-0.165,0.997-0.252,1.46l-0.409,1.924h1.362l-0.417-1.924
		C26.807,28.752,26.721,28.219,26.642,27.767z"/>
	<path fill="none" d="M45.384,27.651c-0.307,0-0.504,0.035-0.598,0.07v2.469h0.575c0.653,0,1.055-0.51,1.055-1.286
		C46.415,28.056,46.014,27.651,45.384,27.651z"/>
	<path fill="none" d="M40.504,27.639c-0.96,0-1.472,1.31-1.472,2.921c0,1.599,0.543,2.863,1.472,2.863
		c0.937,0,1.464-1.287,1.464-2.921C41.968,29.03,41.472,27.639,40.504,27.639z"/>
	<path d="M7.884,23.289h1.677l0.48,2.214h1.047l-1.724-7.812H8.128l-1.7,7.812h1L7.884,23.289z M8.451,20.287
		c0.087-0.464,0.173-1.008,0.252-1.46h0.016c0.079,0.452,0.165,0.985,0.268,1.46l0.417,1.924H8.042L8.451,20.287z"/>
	<path d="M12.788,22.547c0.134,0.046,0.291,0.058,0.472,0.058c0.685,0,1.283-0.278,1.677-0.846c0.291-0.417,0.449-1.02,0.449-1.762
		c0-0.73-0.205-1.344-0.52-1.727c-0.338-0.417-0.85-0.637-1.559-0.637c-0.645,0-1.126,0.07-1.48,0.162v7.707h0.96V22.547z
		 M12.788,18.804c0.102-0.035,0.291-0.07,0.559-0.07c0.669,0,1.078,0.452,1.078,1.321c0,0.904-0.441,1.437-1.165,1.437
		c-0.197,0-0.346-0.012-0.472-0.07V18.804z"/>
	<path d="M17.188,22.547c0.134,0.046,0.291,0.058,0.472,0.058c0.685,0,1.283-0.278,1.677-0.846c0.291-0.417,0.449-1.02,0.449-1.762
		c0-0.73-0.205-1.344-0.52-1.727c-0.338-0.417-0.85-0.637-1.559-0.637c-0.645,0-1.126,0.07-1.48,0.162v7.707h0.96V22.547z
		 M17.188,18.804c0.102-0.035,0.291-0.07,0.559-0.07c0.669,0,1.078,0.452,1.078,1.321c0,0.904-0.441,1.437-1.165,1.437
		c-0.197,0-0.346-0.012-0.472-0.07V18.804z"/>
	<polygon points="23.777,24.309 21.596,24.309 21.596,17.691 20.628,17.691 20.628,25.503 23.777,25.503 	"/>
	<rect x="24.509" y="17.691" width="0.968" height="7.812"/>
	<path d="M29.011,25.63c0.645,0,1.149-0.185,1.378-0.348l-0.157-1.124c-0.26,0.162-0.669,0.278-1.055,0.278
		c-1.173,0-1.85-1.09-1.85-2.816c0-1.878,0.779-2.874,1.858-2.874c0.433,0,0.787,0.139,1.039,0.301l0.205-1.136
		c-0.197-0.151-0.645-0.348-1.283-0.348c-1.622,0-2.842,1.553-2.842,4.126C26.303,24.077,27.327,25.63,29.011,25.63z"/>
	<path d="M32.333,23.289h1.677l0.48,2.214h1.047l-1.724-7.812h-1.236l-1.7,7.812h1L32.333,23.289z M32.899,20.287
		c0.087-0.464,0.173-1.008,0.252-1.46h0.016c0.079,0.452,0.165,0.985,0.268,1.46l0.417,1.924H32.49L32.899,20.287z"/>
	<polygon points="36.654,25.503 37.622,25.503 37.622,18.885 39.149,18.885 39.149,17.691 35.143,17.691 35.143,18.885 
		36.654,18.885 	"/>
	<rect x="39.771" y="17.691" width="0.968" height="7.812"/>
	<path d="M44.022,25.63c1.456,0,2.535-1.495,2.535-4.114c0-2.237-0.913-3.964-2.456-3.964c-1.496,0-2.527,1.692-2.527,4.103
		C41.574,23.938,42.518,25.63,44.022,25.63z M44.069,18.699c0.968,0,1.464,1.391,1.464,2.863c0,1.634-0.527,2.921-1.464,2.921
		c-0.929,0-1.472-1.263-1.472-2.863C42.597,20.009,43.109,18.699,44.069,18.699z"/>
	<path d="M48.281,22.709c0-1.287-0.016-2.318-0.055-3.326l0.032-0.012c0.26,0.881,0.606,1.831,0.944,2.689l1.385,3.442h1.008v-7.812
		h-0.897v2.724c0,1.194,0.016,2.202,0.086,3.245h-0.016c-0.244-0.846-0.559-1.75-0.905-2.619l-1.37-3.35h-1.11v7.812h0.897V22.709z"
		/>
	<polygon points="22.273,27.801 24.375,27.801 24.375,26.631 21.305,26.631 21.305,34.443 22.273,34.443 22.273,31.116 
		24.225,31.116 24.225,29.957 22.273,29.957 	"/>
	<path d="M26.051,26.631l-1.7,7.812h1l0.456-2.214h1.677l0.48,2.214h1.047l-1.724-7.812H26.051z M25.965,31.151l0.409-1.924
		c0.087-0.464,0.173-1.008,0.252-1.46h0.016c0.079,0.452,0.165,0.985,0.268,1.46l0.417,1.924H25.965z"/>
	<path d="M32.183,27.686c0.433,0,0.787,0.139,1.039,0.301l0.205-1.136c-0.197-0.151-0.645-0.348-1.283-0.348
		c-1.622,0-2.842,1.553-2.842,4.126c0,2.388,1.023,3.941,2.708,3.941c0.645,0,1.149-0.185,1.378-0.348l-0.157-1.124
		c-0.26,0.162-0.669,0.278-1.055,0.278c-1.173,0-1.85-1.09-1.85-2.816C30.326,28.682,31.105,27.686,32.183,27.686z"/>
	<polygon points="33.876,27.825 35.387,27.825 35.387,34.443 36.355,34.443 36.355,27.825 37.882,27.825 37.882,26.631 
		33.876,26.631 	"/>
	<path d="M40.535,26.492c-1.496,0-2.527,1.692-2.527,4.103c0,2.283,0.944,3.975,2.448,3.975c1.456,0,2.535-1.495,2.535-4.114
		C42.991,28.219,42.078,26.492,40.535,26.492z M40.504,33.423c-0.929,0-1.472-1.263-1.472-2.863c0-1.611,0.512-2.921,1.472-2.921
		c0.968,0,1.464,1.391,1.464,2.863C41.968,32.136,41.44,33.423,40.504,33.423z"/>
	<path d="M46.415,30.757v-0.035c0.504-0.255,0.968-0.939,0.968-1.947c0-0.672-0.165-1.217-0.457-1.576
		c-0.362-0.44-0.874-0.626-1.637-0.626c-0.559,0-1.094,0.07-1.464,0.174v7.696h0.96v-3.21h0.488
		c0.551,0.023,0.795,0.348,0.952,1.368c0.142,0.974,0.275,1.611,0.354,1.843h0.992c-0.102-0.301-0.244-1.205-0.417-2.179
		C47.029,31.51,46.801,30.966,46.415,30.757z M45.36,30.189h-0.575V27.72c0.094-0.035,0.291-0.07,0.598-0.07
		c0.63,0,1.031,0.406,1.031,1.252C46.415,29.679,46.014,30.189,45.36,30.189z"/>
	<path d="M51.028,26.631l-0.638,2.005c-0.181,0.568-0.331,1.055-0.457,1.553h-0.016c-0.15-0.533-0.283-0.974-0.464-1.553
		l-0.63-2.005h-1.11l1.677,4.555v3.257h0.968v-3.292l1.763-4.52H51.028z"/>
	<polygon points="5.091,19.355 4.624,19.355 4.408,19.355 3.831,19.355 3.646,26.618 2.719,26.618 2.492,17.689 2.025,17.689 
		1.809,17.689 1.232,17.689 1.005,26.618 0,26.618 0,34.442 19.926,34.442 19.926,26.618 5.276,26.618 	"/>
</g>
</svg>
