<?xml version="1.0" encoding="utf-8"?>
<!-- Generator: Adobe Illustrator 26.2.1, SVG Export Plug-In . SVG Version: 6.00 Build 0)  -->
<svg version="1.1" id="Layer_1" xmlns="http://www.w3.org/2000/svg" xmlns:xlink="http://www.w3.org/1999/xlink" x="0px" y="0px"
	 viewBox="0 0 52.122 52.122" enable-background="new 0 0 52.122 52.122" xml:space="preserve">
<g id="XMLID_51_">
	<g id="XMLID_101_">
		<path id="XMLID_21_" d="M45.246,23.599c0-0.743-0.465-1.301-0.836-1.858c-0.372-0.372-0.65-0.743-0.65-1.208
			c0-0.557,0.372-0.929,0.836-0.929c0.279,0,0.465,0.093,0.65,0.186c0.186,0.093,0.465,0.186,0.65,0.186
			c0.372,0,0.65-0.372,0.65-0.65c0-0.372-0.372-0.743-1.022-0.743c-1.486,0-2.787,1.672-2.787,2.973
			c0,0.743,0.465,1.301,0.836,1.765c0.279,0.372,0.557,0.743,0.557,1.115c0,0.557-0.557,0.929-1.022,0.929
			c-0.557,0-0.836-0.279-1.208-0.557c-0.186-0.186-0.372-0.372-0.557-0.372c-0.279,0-0.372,0.557-0.372,0.836
			c0,0.372,0.65,0.929,1.486,0.929C43.759,26.014,45.246,24.9,45.246,23.599"/>
	</g>
	<g id="XMLID_98_">
		<path id="XMLID_99_" d="M13.565,14.494C13.472,14.494,13.472,14.494,13.565,14.494l-0.093,0.372v0.093h0.465
			c0.372,0.093,0.465,0.093,0.465,0.279c0,0.279-0.372,1.208-0.836,2.508l-0.372,1.208c-0.372,1.022-0.929,2.508-1.394,3.716
			c-0.557,1.486-1.022,2.694-1.022,2.88s0.093,0.279,0.557,0.279c0.465,0,0.65-0.093,0.743-0.279c0.836-2.694,3.066-5.76,4.181-5.76
			c0.372,0,0.465,0.093,0.465,0.465c0,0.557-0.465,1.672-1.022,2.787c-0.465,0.929-0.836,1.858-0.836,2.323
			c0,0.372,0.186,0.557,0.557,0.557c1.115,0,2.044-1.022,2.694-1.858l0.093-0.093l-0.279-0.279h-0.093
			c-0.372,0.372-1.022,1.022-1.208,1.022h-0.093v-0.186c0-0.093,0.093-0.372,0.279-0.743c0.465-1.022,1.208-2.787,1.208-3.809
			c0-0.836-0.372-1.301-1.115-1.301c-1.394,0-2.508,1.579-3.066,2.416c-0.093,0.186-0.279,0.372-0.279,0.372
			s0.093-0.186,0.186-0.557c0.186-0.372,0.372-0.929,0.65-1.672c1.022-2.787,1.486-4.181,1.486-4.367
			c0-0.186-0.186-0.186-0.279-0.186h-2.044L13.565,14.494z"/>
	</g>
	<g id="XMLID_95_">
		<path id="XMLID_96_" d="M10.406,24.342C10.499,24.249,10.499,24.249,10.406,24.342c0-0.093-0.279-0.279-0.279-0.279
			c-0.465,0.372-1.301,1.115-2.044,1.115c-0.279,0-0.557-0.093-0.743-0.279c-0.279-0.186-0.372-0.557-0.372-1.022
			c-0.093-1.115,0.929-2.88,1.858-3.902c0.557-0.557,1.022-0.836,1.301-0.836c0.372,0,0.65,0.279,0.929,0.557
			c0.186,0.279,0.372,0.465,0.65,0.465c0.093,0,0.279-0.093,0.279-0.186c0.093-0.093,0.186-0.279,0.186-0.372
			c0-0.465-0.465-1.115-1.486-1.208c-1.115,0-2.601,0.65-3.716,1.765c-1.022,1.022-1.579,2.323-1.486,3.53
			c0,1.022,0.557,2.137,2.044,2.137C9.013,26.014,10.22,24.714,10.406,24.342z"/>
	</g>
	<g id="XMLID_92_">
		<path id="XMLID_93_" d="M29.173,21.741c0,0.093-0.093,0.186-0.093,0.186v-0.093c0-0.093,0.093-0.372,0.186-0.743
			c0.186-0.743,0.372-1.672,0.372-1.951c0-0.372-0.186-0.557-0.557-0.557c-0.743,0-1.951,1.301-2.323,1.951l0.186,0.279l0.093-0.093
			l0.093-0.093c0.279-0.372,0.836-1.022,1.115-1.022c0.186,0,0.279,0.186,0.279,0.465c0,0.65-0.743,2.694-1.208,4.088
			c-0.279,0.743-0.465,1.301-0.465,1.394c0,0.186,0.093,0.186,0.186,0.186h0.65c0.093,0,0.186-0.093,0.279-0.279
			c0,0,0.279-0.743,0.465-1.115c1.301-2.601,1.951-3.902,2.508-4.459c0.372-0.372,0.65-0.465,0.836-0.465s0.186,0.093,0.279,0.186
			s0.186,0.279,0.372,0.279c0.093,0,0.279,0,0.372-0.093c0.186-0.186,0.279-0.372,0.279-0.65c0-0.465-0.372-0.65-0.65-0.65
			C31.124,18.582,30.288,19.418,29.173,21.741z"/>
	</g>
	<path id="XMLID_87_" d="M25.178,18.396c-0.093,0-0.186,0.093-0.186,0.186c-0.093,0.093-0.093,0.186-0.279,0.186
		c-0.093,0-0.186,0-0.372-0.093c-0.186,0-0.372-0.093-0.65-0.093c-3.252,0-4.924,4.367-4.924,5.853c0,1.022,0.557,1.486,1.115,1.486
		c0.65,0,1.579-0.186,2.787-2.044l0.279-0.465v0.093l-0.093,0.186c-0.186,0.279-0.465,0.929-0.465,1.486
		c0,0.279,0.093,0.465,0.186,0.557c0.093,0.093,0.279,0.186,0.465,0.186c1.115,0,2.044-1.486,2.416-2.044l-0.279-0.279h-0.093
		l-0.279,0.279c-0.372,0.372-0.743,0.929-1.022,0.929h-0.093v-0.186c0-0.372,0.743-2.137,1.208-3.53
		c0.372-1.022,0.743-1.951,0.743-2.137c0,0,0-0.186-0.093-0.186l-0.465-0.279C25.271,18.396,25.178,18.396,25.178,18.396z
		 M20.068,24.156c0-2.137,1.672-5.017,3.345-5.017c0.557,0,0.836,0.279,0.836,0.836c0,0.836-2.23,4.831-3.716,4.831
		C20.254,24.9,20.068,24.807,20.068,24.156z"/>
	<path id="XMLID_82_" d="M35.584,23.971c0,1.208,0.743,2.044,1.858,2.044c1.301,0,2.694-1.301,3.066-1.672V24.25l-0.186-0.279
		h-0.093l-0.186,0.093c-0.465,0.372-1.208,0.929-1.858,0.929c-0.743,0-1.208-0.465-1.208-1.208c0-0.929,0.465-1.579,0.743-2.137
		v-0.093h0.743c1.208,0,3.438-0.557,3.438-1.951c0-0.557-0.557-1.208-1.486-1.208C38.557,18.582,35.584,21.369,35.584,23.971z
		 M40.322,19.047c0.372,0,0.65,0.279,0.65,0.65c0,0.929-1.022,1.394-2.787,1.394C38.464,20.44,39.486,19.047,40.322,19.047z"/>
	<g id="XMLID_78_">
		<path id="XMLID_79_" d="M35.026,24.063C35.026,24.063,35.026,23.971,35.026,24.063c0-0.093-0.279-0.372-0.279-0.372l-0.093,0.093
			c-0.65,0.65-0.929,1.115-1.301,1.115H33.26c0,0-0.093-0.093-0.093-0.186c0-0.372,0.65-2.23,1.951-5.574l0.929-2.416
			c0.465-1.208,0.743-1.858,0.743-1.951V14.68c0-0.093-0.093-0.093-0.279-0.093h-2.137c0,0-0.093,0-0.093,0.093v0.465h0.465
			c0.279,0.093,0.465,0.186,0.465,0.372c0,0.279-1.394,3.716-1.394,3.716c-0.743,1.858-2.044,5.11-2.044,5.853
			c0,0.372,0.093,0.65,0.186,0.743c0.186,0.186,0.372,0.279,0.65,0.279c0.836,0,1.765-1.115,2.323-1.858
			C34.933,24.249,35.026,24.063,35.026,24.063z"/>
	</g>
	<g id="XMLID_75_">
		<path id="XMLID_76_" d="M5.575,30.567c0,1.022,0.836,1.579,1.579,1.951l0.372,0.186c0.743,0.372,1.115,0.836,1.115,1.394
			c0,0.65-0.465,1.208-1.115,1.208c-1.022,0-1.579-1.022-1.858-1.672l-0.372,0.093c0.093,0.65,0.279,1.394,0.279,1.672h0.186
			l0.465,0.186c0.279,0.093,0.65,0.186,1.022,0.186c1.394,0,2.416-0.836,2.416-2.137c0-1.208-0.929-1.765-1.579-2.044l-0.279-0.093
			c-0.836-0.465-1.208-0.836-1.208-1.394s0.372-1.115,1.022-1.115c0.836,0,1.208,0.65,1.394,1.301l0.372-0.093
			C9.293,29.639,9.2,29.174,9.2,28.802l-0.28-0.093l-0.186-0.093c-0.279-0.093-0.65-0.186-0.929-0.186
			C6.504,28.523,5.575,29.359,5.575,30.567z"/>
	</g>
	<g id="XMLID_72_">
		<path id="XMLID_73_" d="M10.499,32.239c0,1.765,1.208,3.438,3.902,3.438c0.65,0,1.579-0.186,1.951-0.279
			c0.186-0.465,0.465-1.301,0.557-1.765l-0.372-0.093c-0.557,1.115-1.022,1.672-2.23,1.672c-1.486,0-2.508-1.301-2.508-3.252
			c0-1.394,0.65-2.973,2.508-2.973c1.115,0,1.672,0.465,1.951,1.579h0.372l-0.093-0.465l-0.186-1.208h-0.186
			c-0.372-0.093-0.929-0.186-1.672-0.186C12.172,28.523,10.499,30.009,10.499,32.239z"/>
	</g>
	<g id="XMLID_69_">
		<path id="XMLID_70_" d="M24.714,28.709h-2.973v0.372c0.743,0.093,0.836,0.093,0.836,1.301v1.394h-3.159v-1.394
			c0-1.115,0.093-1.208,0.836-1.301v-0.372h-3.066v0.372c0.929,0.093,0.929,0.186,0.929,1.301v3.716
			c0,1.115-0.093,1.208-0.929,1.301v0.372h3.066v-0.372c-0.743-0.093-0.929-0.093-0.929-1.301v-1.765h3.159v1.765
			c0,1.115-0.093,1.208-0.929,1.301v0.372h3.066v-0.372c-0.836-0.093-0.929-0.093-0.929-1.301v-3.716
			c0-1.115,0.093-1.208,0.929-1.301C24.621,29.08,24.714,28.709,24.714,28.709z"/>
	</g>
	<g id="XMLID_64_">
		<path id="XMLID_65_" d="M35.212,28.709h-2.416v0.372h0.372c0.186,0,0.279,0.093,0.372,0.093c0,0.093,0.093,0.093,0.093,0.186
			s0,0.279-0.093,0.465c0,0.093-0.557,2.416-1.022,3.902c-0.093-0.186-1.858-4.924-1.858-4.924h-0.465c0,0-1.579,4.924-1.579,5.017
			c-0.093-0.186-1.208-4.088-1.208-4.088c0-0.186-0.093-0.279-0.093-0.372v-0.186c0.093-0.093,0.186-0.093,0.372-0.093h0.372v-0.279
			h-2.88v0.372c0.557,0.093,0.743,0.093,1.022,1.022l1.765,5.574h0.465c0,0,1.579-4.831,1.672-4.924
			c0.093,0.186,1.765,4.924,1.765,4.924h0.465c0.929-3.252,1.765-5.481,1.765-5.574c0.372-0.929,0.465-1.022,1.115-1.022
			C35.212,29.173,35.212,28.709,35.212,28.709z"/>
	</g>
	<path id="XMLID_59_" d="M37.07,30.381c0,0,0.743,2.23,0.836,2.23h-1.579C36.234,32.611,37.07,30.381,37.07,30.381z M38.371,30.567
		l-0.743-1.951l-0.465,0.093l-2.137,5.481c-0.372,0.929-0.465,1.022-1.115,1.022v0.372h2.416v-0.372h-0.279
		c-0.186,0-0.372-0.093-0.372-0.186V34.84c0-0.093,0-0.186,0.093-0.372l0.093-0.186c0.093-0.372,0.279-0.929,0.372-1.115h1.951
		c0.186,0.557,0.465,1.208,0.557,1.486c0,0.093,0.093,0.186,0.093,0.279v0.093c0,0.093-0.093,0.093-0.279,0.093l-0.279,0.093v0.279
		h2.787v-0.372c-0.557-0.093-0.743-0.093-1.115-1.022L38.371,30.567L38.371,30.567z"/>
	<path id="XMLID_52_" d="M43.295,29.638c0-0.279,0-0.465,0.093-0.465h0.465c0.279,0,1.301,0.093,1.301,1.301
		c0,0.836-0.557,1.301-1.486,1.301h-0.372C43.295,31.775,43.295,29.638,43.295,29.638z M41.344,28.709v0.372
		c0.743,0.093,0.836,0.093,0.836,1.301v3.716c0,1.115-0.093,1.208-0.929,1.301v0.372h2.601c0.836,0,1.579-0.186,2.044-0.465
		c0.65-0.372,0.929-0.929,0.929-1.579c0-0.929-0.65-1.579-1.858-1.765c0.557-0.093,1.486-0.557,1.486-1.486
		c0-0.557-0.186-0.929-0.557-1.208c-0.372-0.279-0.836-0.372-1.672-0.372h-2.88L41.344,28.709z M43.666,32.053
		c1.208,0,1.858,0.557,1.858,1.579s-0.743,1.486-1.394,1.486c-0.279,0-0.465,0-0.557-0.093c-0.186-0.186-0.186-0.465-0.186-1.022
		v-1.858C43.388,32.053,43.666,32.053,43.666,32.053z"/>
</g>
</svg>
