<?xml version="1.0" encoding="utf-8"?>
<!-- Generator: Adobe Illustrator 26.2.1, SVG Export Plug-In . SVG Version: 6.00 Build 0)  -->
<svg version="1.1" id="Layer_1" xmlns="http://www.w3.org/2000/svg" xmlns:xlink="http://www.w3.org/1999/xlink" x="0px" y="0px"
	 viewBox="0 0 52.122 52.122" enable-background="new 0 0 52.122 52.122" xml:space="preserve">
<path d="M35.848,11.896L35.848,11.896c0.006,0,0.011-0.001,0.018-0.001c0.006,0,0.014,0.001,0.02,0.001
	C35.873,11.896,35.86,11.896,35.848,11.896z M38.482,13.288c-0.281-0.282-0.607-0.561-0.89-0.797
	c-0.056-0.045-0.115-0.087-0.175-0.127c-0.01-0.007-0.021-0.014-0.031-0.021c-0.011-0.008-0.023-0.014-0.035-0.022
	c-0.046-0.029-0.092-0.058-0.139-0.084c-0.012-0.006-0.024-0.013-0.036-0.019c-0.06-0.032-0.121-0.063-0.184-0.089
	c-0.007-0.003-0.014-0.006-0.022-0.009c-0.062-0.027-0.125-0.051-0.187-0.072c-0.006-0.002-0.014-0.005-0.02-0.007
	c-0.065-0.022-0.131-0.041-0.198-0.058c-0.011-0.003-0.023-0.006-0.034-0.009c-0.066-0.016-0.133-0.03-0.199-0.04
	c-0.01-0.002-0.019-0.003-0.029-0.004c-0.138-0.022-0.278-0.033-0.418-0.034c-0.013,0-0.025,0-0.038,0
	c-0.033,0-0.065,0.002-0.098,0.002c-0.015,0.001-0.031,0.001-0.047,0.002c-0.042,0.002-0.084,0.006-0.126,0.01
	c-0.006,0.001-0.013,0.001-0.019,0.002c-0.047,0.005-0.094,0.011-0.141,0.019c-0.018,0.003-0.036,0.006-0.054,0.01
	c-0.029,0.005-0.058,0.01-0.087,0.016c-0.021,0.004-0.042,0.01-0.063,0.014c-0.026,0.006-0.051,0.012-0.077,0.019
	c-0.022,0.006-0.043,0.012-0.064,0.018c-0.025,0.007-0.049,0.014-0.074,0.023c-0.022,0.007-0.043,0.014-0.064,0.021
	c-0.025,0.009-0.048,0.018-0.073,0.027c-0.021,0.008-0.041,0.015-0.062,0.023c-0.026,0.01-0.051,0.022-0.077,0.033
	c-0.019,0.008-0.036,0.015-0.055,0.024c-0.035,0.016-0.069,0.034-0.104,0.051c-0.011,0.006-0.023,0.011-0.034,0.017
	c-0.039,0.021-0.078,0.043-0.116,0.065c-0.014,0.008-0.027,0.018-0.042,0.026c-0.027,0.017-0.055,0.035-0.082,0.052
	c-0.015,0.01-0.03,0.021-0.044,0.031c-0.025,0.018-0.051,0.036-0.075,0.055c-0.014,0.011-0.029,0.023-0.044,0.034
	c-0.025,0.019-0.049,0.039-0.072,0.06c-0.014,0.012-0.027,0.023-0.041,0.035c-0.024,0.022-0.048,0.044-0.072,0.067
	c-0.011,0.015-0.023,0.027-0.036,0.039c-0.026,0.025-0.05,0.051-0.075,0.078c-0.01,0.01-0.019,0.02-0.029,0.031
	c-0.034,0.038-0.067,0.076-0.098,0.116c-0.375,0.516-0.611,1.126-0.611,1.735c0,0.797,0.373,1.546,1.03,2.061
	c0.097,0.094,0.141,0.142,0.19,0.188c0.044,0.047,0.142,0.142,0.233,0.236c3.234,2.53,5.063,6.374,5.015,10.498
	c0,7.453-6.045,13.5-13.498,13.5c-7.451,0-13.499-6.047-13.499-13.5c-0.048-4.124,1.828-7.967,5.062-10.547
	c0.094-0.092,0.188-0.187,0.234-0.233c0.048-0.048,0.094-0.094,0.14-0.142l0.047-0.046c0.657-0.469,1.031-1.265,1.031-2.061
	c-0.046-1.501-1.312-2.72-2.812-2.72c-0.609,0-1.266,0.235-1.735,0.609c-0.282,0.237-0.607,0.516-0.89,0.797
	c-4.265,3.609-6.654,8.859-6.654,14.388c0,10.501,8.529,19.078,19.076,19.078c10.499,0,19.076-8.529,19.076-19.078
	C45.136,22.147,42.702,16.897,38.482,13.288z M26.014,23.929c1.547,0,2.768-1.266,2.768-2.767V8.132
	c0-1.547-1.221-2.764-2.768-2.764s-2.767,1.265-2.767,2.764v13.031C23.248,22.709,24.515,23.929,26.014,23.929z"/>
</svg>
