<?xml version="1.0" encoding="utf-8"?>
<!-- Generator: Adobe Illustrator 26.2.1, SVG Export Plug-In . SVG Version: 6.00 Build 0)  -->
<svg version="1.1" id="Layer_1" xmlns="http://www.w3.org/2000/svg" xmlns:xlink="http://www.w3.org/1999/xlink" x="0px" y="0px"
	 viewBox="0 0 52.122 52.122" enable-background="new 0 0 52.122 52.122" xml:space="preserve">
<path d="M26.061,45.165c-0.19,0-0.379-0.004-0.567-0.009l3.904-10.73h5.373c0.943,0,1.978-0.725,2.301-1.611l4.236-11.634
	c0.693-1.904-0.398-3.463-2.425-3.463h-7.454l-6.254,17.186h-0.002l-3.546,9.742c-8.412-2.001-14.669-9.563-14.669-18.586
	c0-8.764,5.901-16.148,13.946-18.399l-3.659,10.055h-0.001l-6.082,16.708h4.049l5.172-14.198h3.043l-5.172,14.198l4.047,0.001
	l4.82-13.246c0.693-1.904-0.398-3.463-2.423-3.463h-3.404l3.909-10.741c0.284-0.012,0.57-0.02,0.858-0.02
	c10.551,0,19.104,8.553,19.104,19.104S36.612,45.165,26.061,45.165z M37.62,20.219h-3.042l-4.26,11.688h3.042L37.62,20.219z"/>
</svg>
