<?xml version="1.0" encoding="utf-8"?>
<!-- Generator: Adobe Illustrator 26.2.1, SVG Export Plug-In . SVG Version: 6.00 Build 0)  -->
<svg version="1.1" id="Layer_1" xmlns="http://www.w3.org/2000/svg" xmlns:xlink="http://www.w3.org/1999/xlink" x="0px" y="0px"
	 viewBox="0 0 52.122 52.122" enable-background="new 0 0 52.122 52.122" xml:space="preserve">
<g>
	<path id="Y-Fill_00000178180794010629138250000007341074580859693715_" d="M46.439,20.358h-0.78l2.782,5.636l-2.782,5.801h0.785
		l2.896-5.801L46.439,20.358z"/>
	<path id="Z-Fill_00000015349547295366375860000009553330393543910310_" d="M44.607,27.102h-5.796l5.876-6.774h-1.019l-6.534,7.553
		h7.553v-0.779H44.607z"/>
	<path id="EE-Fill_00000129920102933431556320000011181366189596178088_" d="M32.188,23.717v0.735h0.08v-0.001h3.744v-0.36
		c0-0.489-0.095-0.96-0.285-1.415c-0.19-0.454-0.449-0.853-0.779-1.198c-0.33-0.344-0.724-0.619-1.183-0.824
		c-0.459-0.205-0.958-0.307-1.497-0.307c-0.539,0-1.036,0.103-1.49,0.307c-0.454,0.205-0.849,0.479-1.183,0.824
		c-0.335,0.344-0.596,0.744-0.786,1.198c-0.19,0.455-0.285,0.926-0.285,1.415c0,0.47,0.085,0.929,0.255,1.378
		c0.169,0.45,0.416,0.849,0.741,1.198c0.324,0.35,0.716,0.631,1.175,0.846c0.459,0.214,0.983,0.322,1.572,0.322h0.08v-0.748h-0.08
		c-0.299,0-0.624-0.06-0.973-0.18c-0.349-0.12-0.674-0.302-0.973-0.547c-0.299-0.244-0.549-0.557-0.749-0.936
		c-0.2-0.38-0.299-0.824-0.299-1.333c0-0.419,0.083-0.811,0.247-1.175c0.165-0.365,0.384-0.682,0.659-0.951
		c0.274-0.269,0.591-0.482,0.951-0.636c0.359-0.154,0.738-0.232,1.138-0.232c0.469,0,0.888,0.093,1.258,0.277
		c0.369,0.185,0.683,0.412,0.944,0.681c0.259,0.27,0.457,0.557,0.591,0.861c0.135,0.304,0.202,0.572,0.202,0.801H32.188
		L32.188,23.717z"/>
	<path id="E-Fill_00000122705928318645255610000011233896151833578369_" d="M23.577,23.717v0.735h0.08v-0.001h3.744v-0.36
		c0-0.489-0.095-0.96-0.285-1.415c-0.19-0.454-0.449-0.853-0.779-1.198c-0.33-0.344-0.724-0.619-1.183-0.824
		s-0.958-0.307-1.497-0.307c-0.539,0-1.036,0.103-1.49,0.307c-0.454,0.205-0.849,0.479-1.183,0.824
		c-0.335,0.344-0.596,0.744-0.786,1.198c-0.19,0.455-0.285,0.926-0.285,1.415c0,0.47,0.085,0.929,0.255,1.378
		c0.169,0.45,0.416,0.849,0.741,1.198c0.324,0.35,0.716,0.631,1.175,0.846c0.459,0.214,0.983,0.322,1.572,0.322h0.08v-0.748h-0.08
		c-0.299,0-0.624-0.06-0.973-0.18c-0.349-0.12-0.674-0.302-0.973-0.547c-0.299-0.244-0.549-0.557-0.749-0.936
		c-0.2-0.38-0.299-0.824-0.299-1.333c0-0.419,0.083-0.811,0.247-1.175c0.165-0.365,0.384-0.682,0.659-0.951
		c0.274-0.269,0.591-0.482,0.951-0.636c0.359-0.154,0.738-0.232,1.138-0.232c0.469,0,0.888,0.093,1.258,0.277
		c0.369,0.185,0.683,0.412,0.944,0.681c0.259,0.27,0.457,0.557,0.591,0.861c0.135,0.304,0.202,0.572,0.202,0.801H23.577
		L23.577,23.717z"/>
	<path id="N-Fill_00000151535956186421613090000000134228234288927655_" d="M18.529,22.782c-0.175-0.444-0.421-0.839-0.74-1.183
		c-0.319-0.344-0.705-0.622-1.158-0.831c-0.454-0.21-0.959-0.315-1.517-0.315c-0.588,0-1.116,0.103-1.584,0.309
		c-0.468,0.206-0.867,0.48-1.195,0.824c-0.329,0.343-0.581,0.737-0.755,1.181c-0.175,0.445-0.262,0.896-0.262,1.355v0.081h0.792
		v-0.08h0.001c0-0.399,0.07-0.774,0.21-1.123c0.14-0.349,0.342-0.654,0.606-0.914c0.264-0.259,0.581-0.466,0.951-0.622
		c0.369-0.155,0.784-0.232,1.243-0.232c0.399,0,0.774,0.078,1.124,0.233c0.349,0.155,0.653,0.363,0.913,0.623
		c0.26,0.26,0.464,0.565,0.614,0.915c0.15,0.35,0.225,0.725,0.225,1.126v3.877h0.794v-3.869
		C18.791,23.678,18.704,23.226,18.529,22.782z"/>
	<path id="O-Fill_00000089535005882190558240000006650230835560444298_" d="M9.955,22.706c-0.189-0.454-0.451-0.851-0.786-1.19
		c-0.335-0.339-0.729-0.609-1.183-0.809c-0.454-0.199-0.946-0.299-1.475-0.299c-0.519,0-1.006,0.1-1.46,0.299
		c-0.454,0.2-0.848,0.469-1.183,0.809c-0.335,0.339-0.599,0.737-0.794,1.19c-0.195,0.455-0.292,0.931-0.292,1.43h0.749
		c0-0.459,0.084-0.871,0.254-1.235c0.17-0.365,0.395-0.677,0.674-0.936c0.279-0.259,0.597-0.459,0.951-0.599
		c0.354-0.14,0.721-0.21,1.101-0.21c0.459,0,0.871,0.088,1.236,0.262c0.364,0.175,0.676,0.402,0.935,0.681
		c0.26,0.279,0.459,0.599,0.599,0.958c0.14,0.36,0.21,0.719,0.21,1.079c0,0.459-0.083,0.871-0.247,1.235
		c-0.165,0.364-0.384,0.676-0.659,0.936c-0.275,0.26-0.592,0.459-0.951,0.599c-0.36,0.14-0.734,0.21-1.123,0.21v0.749
		c0.609,0,1.146-0.112,1.61-0.337c0.464-0.225,0.853-0.514,1.168-0.869C9.603,26.306,9.84,25.906,10,25.462
		c0.159-0.444,0.24-0.886,0.24-1.325C10.24,23.638,10.145,23.161,9.955,22.706z"/>
</g>
</svg>
