<?xml version="1.0" encoding="utf-8"?>
<!-- Generator: Adobe Illustrator 26.2.1, SVG Export Plug-In . SVG Version: 6.00 Build 0)  -->
<svg version="1.1" id="Layer_1" xmlns="http://www.w3.org/2000/svg" xmlns:xlink="http://www.w3.org/1999/xlink" x="0px" y="0px"
	 viewBox="0 0 52.122 52.122" enable-background="new 0 0 52.122 52.122" xml:space="preserve">
<g transform="translate(0.000000,500.000000) scale(0.100000,-0.100000)">
	<path d="M27.71,4830.498c1.506-1.042,14.825-5.443,19.574-6.37c1.042-0.231,4.517-1.042,7.644-1.737
		c6.602-1.505,6.138-1.39,18.184-3.938c4.864-1.042,10.887-2.085,13.319-2.548c2.432-0.347,5.212-0.811,6.138-1.042
		c1.737-0.463,22.469-3.59,31.85-4.749c2.548-0.231,5.907-0.695,7.528-1.042c1.621-0.232,7.065-0.811,12.161-1.158
		c5.096-0.463,9.497-0.927,9.845-1.158c0.347-0.232,6.023-0.695,12.74-1.158c6.718-0.463,14.246-0.927,16.794-1.158
		c33.588-2.78,134.93-2.78,156.357,0c1.969,0.231,8.455,0.811,14.477,1.158c6.023,0.463,12.277,0.926,13.898,1.158
		c7.992,0.926,15.057,1.737,20.848,2.316c3.475,0.347,7.644,0.926,9.266,1.158c1.621,0.231,7.297,1.042,12.74,1.737
		c12.509,1.622,47.023,7.992,50.613,9.382c1.506,0.579,2.664,0.811,2.664,0.579c0-0.811,23.396,5.791,27.797,7.76l4.054,1.853
		l-4.633-0.347c-2.548-0.232-14.014-1.969-25.48-3.938c-11.466-1.969-24.091-3.938-28.028-4.286
		c-3.938-0.347-8.339-0.926-9.729-1.158c-1.39-0.347-5.444-0.811-9.034-1.158c-15.867-1.505-19.458-1.853-23.28-2.316
		c-2.201-0.231-9.729-0.811-16.794-1.274c-6.949-0.347-13.551-0.926-14.593-1.042c-1.737-0.347-16.678-1.042-49.108-2.316
		c-11.698-0.463-95.551-0.579-107.133,0c-21.195,0.811-46.096,1.969-50.382,2.316c-2.548,0.232-9.845,0.695-16.215,1.158
		c-6.37,0.348-12.856,0.927-14.478,1.158c-1.621,0.232-6.486,0.695-11.003,1.042c-8.223,0.695-17.373,1.622-22.585,2.432
		c-1.621,0.232-5.791,0.695-9.266,1.158c-9.845,1.158-19.458,2.548-24.901,3.591c-1.274,0.231-4.633,0.811-7.528,1.158
		c-2.896,0.347-7.297,1.158-9.845,1.621C33.385,4831.309,25.857,4831.888,27.71,4830.498z"/>
	<path d="M7.21,4813.704c-9.613-4.169-9.613-19.11,0-26.407c5.212-3.938,16.215-9.266,25.133-12.161
		c14.825-4.864,45.749-11.582,62.659-13.551c2.78-0.348,6.37-0.811,7.992-1.158c2.78-0.463,5.328-0.811,17.952-2.316
		c10.655-1.158,14.941-1.622,23.164-2.316c4.517-0.348,10.424-0.927,13.319-1.158c12.045-1.158,19.805-1.737,31.271-2.432
		c27.102-1.506,28.955-1.737,32.777-5.675c3.011-2.896,2.432-5.907-1.506-7.528c-5.212-2.201-36.367-1.853-53.277,0.579
		c-1.621,0.231-6.023,0.695-9.845,1.158c-3.822,0.348-10.54,1.274-15.057,1.853c-4.401,0.579-10.192,1.39-12.74,1.737
		c-2.548,0.231-5.907,0.811-7.528,1.042c-1.621,0.231-5.212,0.811-8.107,1.158c-2.896,0.347-8.339,1.158-12.161,1.737
		s-9.034,1.39-11.582,1.737c-10.076,1.505-47.718,7.644-51.54,8.339c-13.435,2.664-21.543-1.737-22.469-12.161
		c-0.695-6.138,1.853-11.003,7.644-15.057c4.517-3.127,18.068-8.455,25.48-9.96c12.277-2.664,37.178-7.528,40.884-8.107
		c2.548-0.463,9.613-1.505,15.636-2.548c6.023-0.927,12.972-1.969,15.636-2.201c2.548-0.347,5.907-0.811,7.528-1.158
		c1.621-0.347,5.212-0.811,8.107-1.158c2.895-0.347,6.486-0.811,8.107-1.158c1.621-0.231,4.98-0.811,7.528-1.158
		c34.283-4.401,39.147-6.022,40.537-13.204c0.811-4.054-3.127-5.096-16.099-4.401c-6.486,0.463-13.551,1.042-15.752,1.39
		c-7.181,1.158-29.418,5.212-32.43,5.791c-8.339,1.622-14.825,2.896-17.373,3.359c-3.938,0.695-26.87,5.791-40.537,8.802
		c-6.023,1.39-12.277,2.78-13.898,3.011c-1.621,0.348-3.706,0.811-4.749,1.042c-2.085,0.695-5.444-1.622-5.675-4.054
		c-0.579-4.054,0.232-5.559,3.243-6.717c2.78-1.158,15.867-4.17,23.396-5.56c1.621-0.348,4.749-1.042,6.949-1.622
		c3.706-0.926,28.839-6.138,35.904-7.528c1.621-0.347,4.17-0.811,5.791-1.158c6.138-1.274,23.048-4.285,32.43-5.791
		c2.201-0.347,6.949-1.158,10.424-1.737c10.54-1.737,29.187-0.926,32.777,1.506c4.17,2.664,6.718,6.949,7.181,11.466
		c1.042,13.551-9.729,21.89-31.85,24.554c-2.896,0.347-12.74,1.737-22.006,3.011s-18.879,2.548-21.427,2.896
		c-2.548,0.348-5.907,0.927-7.528,1.158c-1.621,0.348-4.749,0.811-6.949,1.042c-21.774,2.664-60.342,10.424-72.735,14.593
		c-5.791,1.969-11.119,4.517-12.856,6.37c-2.896,2.896-2.896,3.127-0.927,4.633c1.274,0.811,3.359,1.39,4.633,1.042
		c1.39-0.232,7.297-1.274,12.972-2.201c5.791-0.927,11.466-1.969,12.74-2.201c1.274-0.231,4.98-0.811,8.107-1.274
		c8.918-1.274,10.192-1.506,13.898-2.201c3.822-0.695,50.034-7.413,55.594-8.107c1.969-0.347,6.37-0.811,9.845-1.274
		c3.475-0.348,7.644-0.927,9.266-1.158c24.322-3.475,52.814-4.401,63.701-2.201c9.15,1.969,12.856,4.517,14.941,10.424
		c4.517,12.856-5.907,23.512-24.785,25.249c-3.127,0.347-12.045,0.926-19.689,1.274c-7.644,0.463-15.752,0.926-17.952,1.158
		c-2.201,0.231-8.686,0.811-14.477,1.158c-5.675,0.347-12.277,0.926-14.477,1.158c-2.201,0.347-6.949,0.811-10.424,1.158
		c-5.907,0.579-29.071,3.475-38.221,4.749c-2.201,0.348-9.266,1.622-15.636,2.78c-6.37,1.158-13.435,2.548-15.636,2.896
		c-2.201,0.347-4.98,0.926-6.023,1.274c-1.042,0.347-2.896,0.811-4.054,1.042c-14.362,3.243-33.588,11.003-38.221,15.52
		c-1.506,1.39-2.664,3.591-2.664,4.749c0,2.664,2.78,3.011,9.266,1.158c2.201-0.579,5.328-1.274,6.949-1.506
		c1.621-0.348,4.98-1.158,7.528-1.737c2.548-0.695,6.949-1.622,9.845-1.969c2.78-0.463,5.444-0.927,5.907-1.158
		c0.579-0.463,23.048-4.517,32.314-5.907c13.898-2.084,18.531-2.779,23.743-3.358c3.243-0.463,7.065-0.927,8.687-1.158
		c1.506-0.348,8.107-1.042,14.477-1.737c6.37-0.695,13.435-1.506,15.636-1.737c5.212-0.579,14.362-1.506,26.059-2.316
		c5.096-0.463,11.582-0.927,14.477-1.158c35.673-3.127,108.987-3.127,148.25,0c2.316,0.116,8.802,0.695,14.478,1.042
		c5.791,0.463,12.277,1.042,14.477,1.274c2.201,0.231,7.413,0.811,11.582,1.158c4.17,0.347,9.381,0.811,11.582,1.158
		c4.054,0.579,5.444,0.811,19.11,2.316c8.223,0.926,7.644,0.811,31.387,4.517c10.308,1.622,21.079,3.475,24.091,4.17
		c2.895,0.579,7.297,1.505,9.729,1.853c2.316,0.347,11.003,2.201,19.11,4.054c17.72,4.054,19.342,4.054,19.342,1.042
		c0-7.876-28.26-19.11-63.238-25.017c-1.853-0.232-7.528-1.274-12.624-2.201c-5.096-0.811-12.161-1.969-15.636-2.316
		c-3.475-0.348-7.644-0.927-9.266-1.158c-17.026-2.432-46.907-5.096-78.178-6.949c-25.712-1.506-30.229-2.316-36.483-6.602
		c-10.076-6.949-10.54-22.469-0.927-27.681c7.065-3.822,30.692-5.212,48.992-2.896c2.548,0.347,8.339,0.926,12.74,1.274
		c4.517,0.348,9.381,0.927,11.003,1.158c1.621,0.231,5.791,0.811,9.266,1.158c3.475,0.463,7.644,0.927,9.266,1.158
		c1.621,0.231,5.212,0.811,8.107,1.158c2.895,0.348,6.486,0.927,8.107,1.158c1.621,0.231,7.065,1.042,12.161,1.737
		c5.096,0.695,10.54,1.506,12.161,1.737c6.833,1.158,25.249,3.938,28.955,4.517c4.517,0.695,30.113,4.98,34.862,5.907
		c1.969,0.347,3.59-0.116,4.633-1.274c2.432-2.896-3.706-7.528-14.593-11.119c-12.856-4.286-53.161-12.045-79.916-15.52
		c-3.127-0.348-6.602-0.927-7.644-1.042c-1.042-0.231-4.633-0.695-7.992-1.158c-3.359-0.463-7.065-0.927-8.107-1.158
		c-1.042-0.231-4.749-0.695-8.223-1.158c-3.475-0.348-7.065-0.927-7.992-1.158c-0.927-0.231-5.096-0.811-9.266-1.158
		c-14.941-1.39-26.523-6.486-30.692-13.667c-2.664-4.517-2.78-13.551-0.232-17.489c3.938-5.907,7.181-7.065,19.921-7.065
		c10.887,0,22.932,0.927,29.534,2.316c1.621,0.348,4.749,0.927,6.949,1.274c2.201,0.348,10.887,1.854,19.11,3.591
		c8.339,1.621,16.331,3.127,17.952,3.358c2.432,0.463,4.633,0.927,10.424,2.201c0.347,0.116,2.432,0.463,4.633,0.927
		c2.201,0.463,6.138,1.39,8.686,1.969c2.548,0.579,10.887,2.432,18.531,4.054c16.562,3.59,19.921,4.749,20.616,7.413
		s-0.927,6.602-3.011,7.413c-1.042,0.347-14.477-2.201-29.997-5.56c-15.52-3.475-29.418-6.602-31.04-6.833
		c-6.254-1.158-9.961-1.969-11.582-2.432c-0.927-0.231-3.59-0.811-5.791-1.158c-2.201-0.347-7.992-1.39-12.856-2.316
		c-4.864-0.926-11.35-1.969-14.478-2.432c-3.127-0.348-6.023-0.927-6.37-1.158c-0.347-0.231-6.602-0.695-14.014-1.158
		c-14.362-0.811-18.531,0.116-17.952,4.169c0.811,5.56,8.571,9.498,21.658,11.003c3.475,0.463,7.644,0.927,9.266,1.158
		c1.621,0.232,5.791,0.811,9.266,1.158c3.475,0.348,7.181,0.927,8.107,1.158c0.927,0.232,4.17,0.811,7.181,1.158
		c22.817,2.548,74.356,11.582,89.876,15.636c14.362,3.822,26.06,9.266,29.534,14.014c2.664,3.707,3.243,10.771,1.274,15.751
		c-2.664,6.139-11.003,9.15-20.153,7.181c-2.201-0.463-6.37-1.158-9.266-1.622c-7.065-0.927-11.582-1.622-15.057-2.316
		c-1.621-0.348-4.633-0.811-6.602-1.158c-2.085-0.348-5.328-0.811-7.297-1.158c-1.853-0.348-5.212-0.811-7.181-1.158
		c-2.085-0.348-5.096-0.811-6.718-1.158c-1.621-0.348-5.444-0.811-8.686-1.274c-3.127-0.348-6.602-0.811-7.528-1.042
		c-2.664-0.463-10.54-1.622-15.636-2.316c-2.548-0.348-12.161-1.622-21.427-2.78c-9.266-1.274-20.732-2.664-25.48-3.011
		c-4.749-0.463-12.856-1.158-17.952-1.622c-12.161-1.158-28.492-0.695-33.588,1.042c-6.023,1.969-5.444,6.138,1.39,9.729
		c3.475,1.737,6.486,2.084,30.461,3.59c14.825,0.926,32.661,2.316,44.938,3.59c21.195,2.085,27.913,2.78,35.557,4.054
		c3.822,0.463,9.266,1.274,12.161,1.622c4.517,0.579,8.107,1.158,21.079,3.359c8.339,1.39,31.735,7.181,39.726,9.613
		c27.449,8.687,39.147,20.963,32.43,33.936c-3.243,6.254-11.003,8.339-20.384,5.791c-4.749-1.39-42.39-9.034-48.529-9.96
		c-7.297-1.158-10.887-1.621-17.373-2.779c-8.571-1.506-12.161-1.969-19.689-2.896c-3.475-0.463-7.644-0.927-9.266-1.158
		c-1.621-0.232-5.791-0.811-9.266-1.158c-3.475-0.348-7.644-0.927-9.266-1.158c-1.621-0.232-6.833-0.695-11.582-1.158
		c-4.749-0.348-10.54-0.927-12.74-1.158c-39.726-4.98-132.266-6.139-175.467-2.316c-2.548,0.231-7.992,0.695-12.161,1.042
		c-51.656,4.517-91.845,9.961-127.981,17.489c-5.096,1.042-13.551,2.895-18.879,4.169C15.549,4815.789,12.19,4815.904,7.21,4813.704
		z"/>
	<path d="M253.559,4736.568c-2.201-1.39-4.864-3.359-5.791-4.401c-1.853-1.969-10.424-14.825-10.424-15.636
		c0-0.231-2.664-6.138-5.907-12.972c-18.415-39.379-20.963-43.201-29.65-45.749c-8.107-2.201-34.051-1.853-46.791,0.695
		c-1.506,0.348-4.401,0.811-6.37,1.158c-5.675,0.695-22.353,3.938-29.997,5.791c-23.396,5.444-33.24,7.992-39.958,9.845
		c-9.497,2.78-13.898,3.59-13.898,2.548c0-2.896,58.489-21.195,83.969-26.175c17.72-3.591,27.334-4.633,41.116-4.401
		c13.088,0.116,20.963,2.316,26.407,7.528c4.054,3.938,11.582,16.215,17.026,28.028c13.435,29.071,21.079,42.39,25.48,44.359
		c5.559,2.664,13.783-7.76,25.48-31.851c18.994-39.379,21.311-42.969,29.766-45.401c4.98-1.506,25.712-2.085,31.85-0.811
		c1.737,0.348,5.559,0.927,8.455,1.274c13.319,1.737,45.17,8.803,65.438,14.594c17.605,5.096,37.641,11.813,37.641,12.624
		c0,0.927-8.455-0.231-15.751-2.2c-2.432-0.579-14.13-3.243-25.944-5.791c-48.992-10.424-79.916-14.015-94.972-11.119
		c-8.107,1.622-8.918,2.78-23.511,33.936c-14.477,30.924-19.689,38.8-28.608,44.127
		C263.404,4739.695,258.655,4739.695,253.559,4736.568z"/>
</g>
</svg>
